<svg width="14" height="14" viewBox="0 0 14 14" fill="none" xmlns="http://www.w3.org/2000/svg">
<path d="M3.02656 10.7502C3.05781 10.7502 3.08906 10.7471 3.12031 10.7424L5.74844 10.2815C5.77969 10.2752 5.80938 10.2612 5.83125 10.2377L12.4547 3.61431C12.4692 3.59985 12.4807 3.58268 12.4885 3.56378C12.4963 3.54488 12.5004 3.52461 12.5004 3.50415C12.5004 3.48369 12.4963 3.46342 12.4885 3.44452C12.4807 3.42562 12.4692 3.40845 12.4547 3.39399L9.85781 0.795557C9.82813 0.765869 9.78906 0.750244 9.74688 0.750244C9.70469 0.750244 9.66563 0.765869 9.63594 0.795557L3.0125 7.41899C2.98906 7.44243 2.975 7.47056 2.96875 7.50181L2.50781 10.1299C2.49261 10.2136 2.49804 10.2998 2.52364 10.3809C2.54923 10.4621 2.59421 10.5357 2.65469 10.5956C2.75781 10.6956 2.8875 10.7502 3.02656 10.7502ZM4.07969 8.02524L9.74688 2.35962L10.8922 3.50493L5.225 9.17056L3.83594 9.41587L4.07969 8.02524ZM12.75 12.0627H1.25C0.973438 12.0627 0.75 12.2862 0.75 12.5627V13.1252C0.75 13.194 0.80625 13.2502 0.875 13.2502H13.125C13.1938 13.2502 13.25 13.194 13.25 13.1252V12.5627C13.25 12.2862 13.0266 12.0627 12.75 12.0627Z" fill="black"/>
</svg>
