<svg width="17" height="25" viewBox="0 0 17 25" fill="none" xmlns="http://www.w3.org/2000/svg">
<path d="M12.5689 4.31034C12.5689 6.69088 10.6391 8.62069 8.25859 8.62069C5.87805 8.62069 3.94824 6.69088 3.94824 4.31034C3.94824 1.92981 5.87805 0 8.25859 0C10.6391 0 12.5689 1.92981 12.5689 4.31034Z" fill="#C4C4C4"/>
<mask id="mask0_134497_8469" style="mask-type:alpha" maskUnits="userSpaceOnUse" x="0" y="9" width="17" height="16">
<path d="M16.0172 17.2413C16.0172 21.5263 12.5436 24.9999 8.25862 24.9999C3.97365 24.9999 0.5 21.5263 0.5 17.2413C0.5 12.9563 3.97365 9.48267 8.25862 9.48267C12.5436 9.48267 16.0172 12.9563 16.0172 17.2413Z" fill="#C4C4C4"/>
</mask>
<g mask="url(#mask0_134497_8469)">
<path d="M0.5 1.72412H16.0172V17.2414H0.5V1.72412Z" fill="#C4C4C4"/>
</g>
</svg>
